<svg viewBox="0 0 440 280" width="440" height="280" xmlns="http://www.w3.org/2000/svg" fill="none">
  <defs>
    <filter id="sh" x="-25%" y="-25%" width="150%" height="160%">
      <feDropShadow dx="0" dy="6" stdDeviation="9" flood-color="#0b1e3d" flood-opacity="0.12"/>
    </filter>
  </defs>

  <ellipse cx="220" cy="162" rx="178" ry="92" fill="#e8f0fe" opacity="0.55"/>

  <!-- automation loop arrow over the top -->
  <path d="M300 96 C300 62, 150 62, 150 98" stroke="#2f7cf6" stroke-width="2.2" stroke-dasharray="5 6" stroke-linecap="round"/>
  <path d="M145 92 h10 l-5 9 z" fill="#2f7cf6"/>

  <!-- input doc card -->
  <g filter="url(#sh)">
    <rect x="34" y="118" width="76" height="64" rx="10" fill="#ffffff" stroke="#dde5f4" stroke-width="1.5"/>
  </g>
  <rect x="54" y="132" width="36" height="40" rx="4" fill="#eef4fe" stroke="#9bb3d6" stroke-width="1.5"/>
  <path d="M80 132 v9 h10" stroke="#9bb3d6" stroke-width="1.5" fill="#ffffff"/>
  <rect x="60" y="148" width="20" height="3.5" rx="1.75" fill="#bcd4f7"/>
  <rect x="60" y="156" width="24" height="3.5" rx="1.75" fill="#cdd9ee"/>
  <rect x="60" y="164" width="16" height="3.5" rx="1.75" fill="#cdd9ee"/>

  <!-- arrow into gears -->
  <line x1="114" y1="150" x2="150" y2="150" stroke="#9bb3d6" stroke-width="2.5"/>
  <path d="M150 150 l-9 -5 v10 z" fill="#9bb3d6"/>

  <!-- big gear (196,150) -->
  <g>
    <g transform="rotate(0 196 150)"><rect x="191.5" y="118" width="9" height="16" rx="2" fill="#2f7cf6"/></g>
    <g transform="rotate(45 196 150)"><rect x="191.5" y="118" width="9" height="16" rx="2" fill="#2f7cf6"/></g>
    <g transform="rotate(90 196 150)"><rect x="191.5" y="118" width="9" height="16" rx="2" fill="#2f7cf6"/></g>
    <g transform="rotate(135 196 150)"><rect x="191.5" y="118" width="9" height="16" rx="2" fill="#2f7cf6"/></g>
    <g transform="rotate(180 196 150)"><rect x="191.5" y="118" width="9" height="16" rx="2" fill="#2f7cf6"/></g>
    <g transform="rotate(225 196 150)"><rect x="191.5" y="118" width="9" height="16" rx="2" fill="#2f7cf6"/></g>
    <g transform="rotate(270 196 150)"><rect x="191.5" y="118" width="9" height="16" rx="2" fill="#2f7cf6"/></g>
    <g transform="rotate(315 196 150)"><rect x="191.5" y="118" width="9" height="16" rx="2" fill="#2f7cf6"/></g>
    <circle cx="196" cy="150" r="26" fill="#2f7cf6"/>
    <circle cx="196" cy="150" r="11" fill="#ffffff"/>
  </g>

  <!-- small gear (236,120) -->
  <g>
    <g transform="rotate(0 236 120)"><rect x="233" y="99" width="6" height="13" rx="2" fill="#4d94ff"/></g>
    <g transform="rotate(60 236 120)"><rect x="233" y="99" width="6" height="13" rx="2" fill="#4d94ff"/></g>
    <g transform="rotate(120 236 120)"><rect x="233" y="99" width="6" height="13" rx="2" fill="#4d94ff"/></g>
    <g transform="rotate(180 236 120)"><rect x="233" y="99" width="6" height="13" rx="2" fill="#4d94ff"/></g>
    <g transform="rotate(240 236 120)"><rect x="233" y="99" width="6" height="13" rx="2" fill="#4d94ff"/></g>
    <g transform="rotate(300 236 120)"><rect x="233" y="99" width="6" height="13" rx="2" fill="#4d94ff"/></g>
    <circle cx="236" cy="120" r="15" fill="#4d94ff"/>
    <circle cx="236" cy="120" r="6.5" fill="#ffffff"/>
  </g>

  <!-- arrow to outputs -->
  <line x1="232" y1="166" x2="286" y2="172" stroke="#9bb3d6" stroke-width="2.5"/>
  <path d="M286 172 l-9 -4 v8 z" fill="#9bb3d6"/>

  <!-- output card 1 (done) -->
  <g filter="url(#sh)">
    <rect x="298" y="106" width="100" height="46" rx="9" fill="#ffffff" stroke="#dde5f4" stroke-width="1.5"/>
  </g>
  <circle cx="318" cy="129" r="10" fill="#e6f6ee"/>
  <path d="M313 129 l3.6 3.6 6 -6.6" stroke="#2fb96b" stroke-width="2.4" stroke-linecap="round" stroke-linejoin="round"/>
  <rect x="334" y="122" width="50" height="4.5" rx="2.25" fill="#bcd4f7"/>
  <rect x="334" y="132" width="38" height="4.5" rx="2.25" fill="#e1e9f6"/>

  <!-- output card 2 -->
  <g filter="url(#sh)">
    <rect x="298" y="160" width="100" height="46" rx="9" fill="#ffffff" stroke="#dde5f4" stroke-width="1.5"/>
  </g>
  <rect x="312" y="176" width="20" height="14" rx="3" fill="#d6e6fb"/>
  <rect x="340" y="176" width="44" height="4.5" rx="2.25" fill="#bcd4f7"/>
  <rect x="340" y="186" width="32" height="4.5" rx="2.25" fill="#e1e9f6"/>
</svg>
