<svg viewBox="0 0 440 280" width="440" height="280" xmlns="http://www.w3.org/2000/svg" fill="none">
  <defs>
    <filter id="sh" x="-25%" y="-25%" width="150%" height="160%">
      <feDropShadow dx="0" dy="6" stdDeviation="9" flood-color="#0b1e3d" flood-opacity="0.12"/>
    </filter>
  </defs>

  <!-- soft stage -->
  <ellipse cx="222" cy="158" rx="172" ry="96" fill="#e8f0fe" opacity="0.55"/>

  <!-- spaces cluster (left) connected to the hub -->
  <line x1="118" y1="112" x2="156" y2="124" stroke="#9bb3d6" stroke-width="2"/>
  <line x1="118" y1="176" x2="156" y2="170" stroke="#9bb3d6" stroke-width="2"/>
  <circle cx="156" cy="124" r="3.5" fill="#2f7cf6"/>
  <circle cx="156" cy="170" r="3.5" fill="#2f7cf6"/>
  <g filter="url(#sh)">
    <rect x="48" y="92" width="66" height="42" rx="9" fill="#ffffff" stroke="#dde5f4" stroke-width="1.5"/>
    <rect x="48" y="154" width="66" height="42" rx="9" fill="#ffffff" stroke="#dde5f4" stroke-width="1.5"/>
  </g>
  <rect x="58" y="104" width="30" height="5" rx="2.5" fill="#bcd4f7"/>
  <rect x="58" y="115" width="46" height="5" rx="2.5" fill="#e1e9f6"/>
  <rect x="58" y="166" width="30" height="5" rx="2.5" fill="#bcd4f7"/>
  <rect x="58" y="177" width="46" height="5" rx="2.5" fill="#e1e9f6"/>

  <!-- main window: AI companion chat -->
  <g filter="url(#sh)">
    <rect x="156" y="66" width="208" height="150" rx="14" fill="#ffffff" stroke="#dde5f4" stroke-width="1.5"/>
  </g>
  <line x1="156" y1="94" x2="364" y2="94" stroke="#eef2f9" stroke-width="2"/>
  <circle cx="174" cy="80" r="3.2" fill="#cdd9ee"/>
  <circle cx="186" cy="80" r="3.2" fill="#cdd9ee"/>
  <circle cx="198" cy="80" r="3.2" fill="#cdd9ee"/>
  <!-- AI sparkle -->
  <path d="M338 73 l2.6 5.6 5.6 2.6 -5.6 2.6 -2.6 5.6 -2.6 -5.6 -5.6 -2.6 5.6 -2.6 z" fill="#4d94ff"/>

  <!-- chat bubbles -->
  <rect x="170" y="106" width="120" height="30" rx="12" fill="#e8f0fe"/>
  <rect x="182" y="116" width="60" height="4.5" rx="2.25" fill="#9bb3d6"/>
  <rect x="182" y="124" width="92" height="4.5" rx="2.25" fill="#c3d2e8"/>

  <rect x="214" y="146" width="136" height="30" rx="12" fill="#2f7cf6"/>
  <rect x="226" y="156" width="80" height="4.5" rx="2.25" fill="#ffffff" opacity="0.95"/>
  <rect x="226" y="164" width="104" height="4.5" rx="2.25" fill="#ffffff" opacity="0.55"/>

  <rect x="170" y="186" width="96" height="22" rx="11" fill="#e8f0fe"/>
  <rect x="182" y="194" width="60" height="4.5" rx="2.25" fill="#9bb3d6"/>

  <!-- secure shield badge -->
  <circle cx="338" cy="198" r="26" fill="#ffffff" stroke="#dde5f4" stroke-width="1.5" filter="url(#sh)"/>
  <path d="M338 182 l13 4.6 v9 c0 10.5 -6.5 16.8 -13 20.4 c-6.5 -3.6 -13 -9.9 -13 -20.4 v-9 z" fill="#2f7cf6"/>
  <path d="M332 198 l4.4 4.4 8.2 -8.4" stroke="#ffffff" stroke-width="2.6" stroke-linecap="round" stroke-linejoin="round"/>
</svg>
